<svg width="24" height="24" viewBox="0 0 24 24" fill="none" xmlns="http://www.w3.org/2000/svg">
<path fill-rule="evenodd" clip-rule="evenodd" d="M5.57573 5.57573C5.81004 5.34142 6.18994 5.34142 6.42426 5.57573L12 11.1515L17.5757 5.57573C17.81 5.34142 18.1899 5.34142 18.4243 5.57573C18.6586 5.81004 18.6586 6.18994 18.4243 6.42426L12.8485 12L18.4243 17.5757C18.6586 17.81 18.6586 18.1899 18.4243 18.4243C18.1899 18.6586 17.81 18.6586 17.5757 18.4243L12 12.8485L6.42426 18.4243C6.18994 18.6586 5.81004 18.6586 5.57573 18.4243C5.34142 18.1899 5.34142 17.81 5.57573 17.5757L11.1515 12L5.57573 6.42426C5.34142 6.18994 5.34142 5.81004 5.57573 5.57573Z" fill="black"/>
</svg>
