<svg width="20" height="20" viewBox="0 0 20 20" fill="none" xmlns="http://www.w3.org/2000/svg">
<path d="M6.47666 2.03254L7.37416 1.74588C8.21416 1.47754 9.11249 1.91171 9.47249 2.76004L10.1892 4.45005C10.5017 5.18588 10.3283 6.05171 9.76083 6.59005L8.18333 8.08838C8.28055 8.98505 8.58166 9.86755 9.08666 10.7359C9.56689 11.5758 10.2104 12.311 10.9792 12.8984L12.8758 12.265C13.5942 12.0259 14.3767 12.3017 14.8175 12.9492L15.8442 14.4575C16.3575 15.2109 16.265 16.2492 15.6292 16.8875L14.9475 17.5717C14.2692 18.2525 13.3008 18.5 12.4042 18.22C10.2886 17.56 8.34333 15.6009 6.56833 12.3425C4.7911 9.07866 4.16388 6.30977 4.68666 4.03588C4.90666 3.07921 5.58833 2.31671 6.47833 2.03254" fill="#7398B0"/>
</svg>
